<svg width="500" height="500" viewBox="0 0 500 500" fill="none" xmlns="http://www.w3.org/2000/svg">
<ellipse cx="183.279" cy="404.201" rx="23.9904" ry="19.7568" fill="#6B7848"/>
<ellipse cx="172.676" cy="396.716" rx="17.7897" ry="22.9545" fill="#6B7848"/>
<path d="M266.85 136.752L319.221 204.02L216.026 205.195L266.85 136.752Z" fill="#6B7848"/>
<path d="M196.244 156.929L277.849 181.591L194.288 242.157L196.244 156.929Z" fill="#7EA711"/>
<path d="M259.484 167.12C297.674 167.12 328.634 198.079 328.634 236.269V405.612C328.634 443.802 297.674 474.762 259.484 474.762C221.295 474.761 190.336 443.802 190.336 405.612V236.268C190.336 198.079 221.295 167.12 259.484 167.12ZM277.929 269.641C277.678 269.525 277.384 269.635 277.271 269.888L264.098 299.483C263.986 299.735 264.097 300.034 264.348 300.15C264.598 300.266 264.892 300.156 265.005 299.904L278.179 270.308C278.291 270.056 278.179 269.758 277.929 269.641ZM261.94 256.798C261.766 256.584 261.453 256.556 261.243 256.735L229.626 283.639C229.416 283.818 229.387 284.137 229.562 284.351C229.736 284.565 230.048 284.593 230.258 284.414L261.876 257.51C262.086 257.331 262.115 257.012 261.94 256.798ZM254.967 242.776L219.039 253.259C218.774 253.336 218.619 253.614 218.693 253.88C218.768 254.146 219.044 254.299 219.309 254.221L255.236 243.739C255.501 243.662 255.655 243.384 255.581 243.118C255.507 242.852 255.232 242.699 254.967 242.776ZM284.887 210.35C279.431 210.351 275.009 215.512 275.009 221.879C275.009 228.245 279.431 233.407 284.887 233.407C290.342 233.407 294.766 228.245 294.766 221.879C294.766 215.512 290.342 210.35 284.887 210.35Z" fill="#7EA711"/>
<ellipse cx="256.663" cy="65.5136" rx="40.9249" ry="39.5136" fill="#FDF75D"/>
</svg>
